<svg width="669" height="104"><g fill="#ebedf0"><path d="M29 20h10v10H29zM29 32h10v10H29zM29 44h10v10H29zM29 56h10v10H29zM29 68h10v10H29zM29 80h10v10H29zM29 92h10v10H29z"/></g><path fill="#ebedf0" d="M41 20h10v10H41z"/><path fill="#239a3b" d="M41 32h10v10H41zM41 44h10v10H41zM41 56h10v10H41z"/><path fill="#ebedf0" d="M41 68h10v10H41zM41 80h10v10H41zM41 92h10v10H41z"/><path fill="#239a3b" d="M53 20h10v10H53z"/><path fill="#c6e48b" d="M53 32h10v10H53zM53 44h10v10H53zM53 56h10v10H53z"/><path fill="#239a3b" d="M53 68h10v10H53z"/><path fill="#ebedf0" d="M53 80h10v10H53zM53 92h10v10H53z"/><path fill="#239a3b" d="M65 20h10v10H65z"/><path fill="#c6e48b" d="M65 32h10v10H65zM65 44h10v10H65zM65 56h10v10H65zM65 68h10v10H65z"/><path fill="#239a3b" d="M65 80h10v10H65z"/><path fill="#ebedf0" d="M65 92h10v10H65zM77 20h10v10H77z"/><path fill="#239a3b" d="M77 32h10v10H77z"/><path fill="#c6e48b" d="M77 44h10v10H77zM77 56h10v10H77zM77 68h10v10H77zM77 80h10v10H77z"/><path fill="#239a3b" d="M77 92h10v10H77zM89 20h10v10H89z"/><path fill="#c6e48b" d="M89 32h10v10H89zM89 44h10v10H89zM89 56h10v10H89zM89 68h10v10H89z"/><path fill="#239a3b" d="M89 80h10v10H89z"/><path fill="#ebedf0" d="M89 92h10v10H89z"/><path fill="#239a3b" d="M101 20h10v10h-10z"/><path fill="#c6e48b" d="M101 32h10v10h-10zM101 44h10v10h-10zM101 56h10v10h-10z"/><path fill="#239a3b" d="M101 68h10v10h-10z"/><path fill="#ebedf0" d="M101 80h10v10h-10zM101 92h10v10h-10zM113 20h10v10h-10z"/><path fill="#239a3b" d="M113 32h10v10h-10zM113 44h10v10h-10zM113 56h10v10h-10z"/><path fill="#ebedf0" d="M113 68h10v10h-10zM113 80h10v10h-10zM113 92h10v10h-10z"/><g fill="#ebedf0"><path d="M125 20h10v10h-10zM125 32h10v10h-10zM125 44h10v10h-10zM125 56h10v10h-10zM125 68h10v10h-10zM125 80h10v10h-10zM125 92h10v10h-10z"/></g><g fill="#c6e48b"><path d="M137 20h10v10h-10zM137 32h10v10h-10zM137 44h10v10h-10zM137 56h10v10h-10zM137 68h10v10h-10zM137 80h10v10h-10zM137 92h10v10h-10z"/></g><path fill="#c6e48b" d="M149 20h10v10h-10z"/><path fill="#239a3b" d="M149 32h10v10h-10zM149 44h10v10h-10z"/><path fill="#c6e48b" d="M149 56h10v10h-10zM149 68h10v10h-10z"/><path fill="#239a3b" d="M149 80h10v10h-10z"/><path fill="#c6e48b" d="M149 92h10v10h-10z"/><g><path fill="#239a3b" d="M161 20h10v10h-10z"/><path fill="#c6e48b" d="M161 32h10v10h-10zM161 44h10v10h-10z"/><path fill="#239a3b" d="M161 56h10v10h-10z"/><path fill="#c6e48b" d="M161 68h10v10h-10zM161 80h10v10h-10z"/><path fill="#239a3b" d="M161 92h10v10h-10z"/></g><g><path fill="#239a3b" d="M173 20h10v10h-10z"/><path fill="#c6e48b" d="M173 32h10v10h-10zM173 44h10v10h-10z"/><path fill="#239a3b" d="M173 56h10v10h-10z"/><path fill="#c6e48b" d="M173 68h10v10h-10zM173 80h10v10h-10z"/><path fill="#239a3b" d="M173 92h10v10h-10z"/></g><g><path fill="#239a3b" d="M185 20h10v10h-10z"/><path fill="#c6e48b" d="M185 32h10v10h-10zM185 44h10v10h-10z"/><path fill="#239a3b" d="M185 56h10v10h-10z"/><path fill="#c6e48b" d="M185 68h10v10h-10zM185 80h10v10h-10z"/><path fill="#239a3b" d="M185 92h10v10h-10z"/></g><g><path fill="#c6e48b" d="M197 20h10v10h-10z"/><path fill="#239a3b" d="M197 32h10v10h-10z"/><path fill="#c6e48b" d="M197 44h10v10h-10zM197 56h10v10h-10z"/><path fill="#239a3b" d="M197 68h10v10h-10zM197 80h10v10h-10z"/><path fill="#c6e48b" d="M197 92h10v10h-10z"/></g><g fill="#c6e48b"><path d="M209 20h10v10h-10zM209 32h10v10h-10zM209 44h10v10h-10zM209 56h10v10h-10zM209 68h10v10h-10zM209 80h10v10h-10zM209 92h10v10h-10z"/></g><g fill="#239a3b"><path d="M221 20h10v10h-10zM221 32h10v10h-10zM221 44h10v10h-10zM221 56h10v10h-10zM221 68h10v10h-10zM221 80h10v10h-10zM221 92h10v10h-10z"/></g><g><path fill="#c6e48b" d="M233 20h10v10h-10zM233 32h10v10h-10zM233 44h10v10h-10z"/><path fill="#239a3b" d="M233 56h10v10h-10z"/><path fill="#c6e48b" d="M233 68h10v10h-10zM233 80h10v10h-10zM233 92h10v10h-10z"/></g><g><path fill="#c6e48b" d="M245 20h10v10h-10zM245 32h10v10h-10zM245 44h10v10h-10z"/><path fill="#239a3b" d="M245 56h10v10h-10z"/><path fill="#c6e48b" d="M245 68h10v10h-10zM245 80h10v10h-10zM245 92h10v10h-10z"/></g><g><path fill="#c6e48b" d="M257 20h10v10h-10zM257 32h10v10h-10zM257 44h10v10h-10z"/><path fill="#239a3b" d="M257 56h10v10h-10z"/><path fill="#c6e48b" d="M257 68h10v10h-10zM257 80h10v10h-10zM257 92h10v10h-10z"/></g><g fill="#239a3b"><path d="M269 20h10v10h-10zM269 32h10v10h-10zM269 44h10v10h-10zM269 56h10v10h-10zM269 68h10v10h-10zM269 80h10v10h-10zM269 92h10v10h-10z"/></g><g fill="#c6e48b"><path d="M281 20h10v10h-10zM281 32h10v10h-10zM281 44h10v10h-10zM281 56h10v10h-10zM281 68h10v10h-10zM281 80h10v10h-10zM281 92h10v10h-10z"/></g><g><path fill="#239a3b" d="M293 20h10v10h-10z"/><path fill="#c6e48b" d="M293 32h10v10h-10zM293 44h10v10h-10zM293 56h10v10h-10zM293 68h10v10h-10zM293 80h10v10h-10z"/><path fill="#239a3b" d="M293 92h10v10h-10z"/></g><g><path fill="#239a3b" d="M305 20h10v10h-10z"/><path fill="#c6e48b" d="M305 32h10v10h-10zM305 44h10v10h-10zM305 56h10v10h-10zM305 68h10v10h-10zM305 80h10v10h-10z"/><path fill="#239a3b" d="M305 92h10v10h-10z"/></g><g fill="#239a3b"><path d="M317 20h10v10h-10zM317 32h10v10h-10zM317 44h10v10h-10zM317 56h10v10h-10zM317 68h10v10h-10zM317 80h10v10h-10zM317 92h10v10h-10z"/></g><g><path fill="#239a3b" d="M329 20h10v10h-10z"/><path fill="#c6e48b" d="M329 32h10v10h-10zM329 44h10v10h-10zM329 56h10v10h-10zM329 68h10v10h-10zM329 80h10v10h-10z"/><path fill="#239a3b" d="M329 92h10v10h-10z"/></g><g><path fill="#239a3b" d="M341 20h10v10h-10z"/><path fill="#c6e48b" d="M341 32h10v10h-10zM341 44h10v10h-10zM341 56h10v10h-10zM341 68h10v10h-10zM341 80h10v10h-10z"/><path fill="#239a3b" d="M341 92h10v10h-10z"/></g><g fill="#c6e48b"><path d="M353 20h10v10h-10zM353 32h10v10h-10zM353 44h10v10h-10zM353 56h10v10h-10zM353 68h10v10h-10zM353 80h10v10h-10zM353 92h10v10h-10z"/></g><g><path fill="#239a3b" d="M365 20h10v10h-10zM365 32h10v10h-10zM365 44h10v10h-10z"/><path fill="#c6e48b" d="M365 56h10v10h-10zM365 68h10v10h-10zM365 80h10v10h-10zM365 92h10v10h-10z"/></g><g><path fill="#c6e48b" d="M377 20h10v10h-10zM377 32h10v10h-10zM377 44h10v10h-10z"/><path fill="#239a3b" d="M377 56h10v10h-10zM377 68h10v10h-10z"/><path fill="#c6e48b" d="M377 80h10v10h-10zM377 92h10v10h-10z"/></g><g><path fill="#c6e48b" d="M389 20h10v10h-10zM389 32h10v10h-10zM389 44h10v10h-10zM389 56h10v10h-10zM389 68h10v10h-10z"/><path fill="#239a3b" d="M389 80h10v10h-10zM389 92h10v10h-10z"/></g><g><path fill="#c6e48b" d="M401 20h10v10h-10zM401 32h10v10h-10zM401 44h10v10h-10z"/><path fill="#239a3b" d="M401 56h10v10h-10zM401 68h10v10h-10z"/><path fill="#c6e48b" d="M401 80h10v10h-10zM401 92h10v10h-10z"/></g><g><path fill="#239a3b" d="M413 20h10v10h-10zM413 32h10v10h-10zM413 44h10v10h-10z"/><path fill="#c6e48b" d="M413 56h10v10h-10zM413 68h10v10h-10zM413 80h10v10h-10zM413 92h10v10h-10z"/></g><g fill="#c6e48b"><path d="M425 20h10v10h-10zM425 32h10v10h-10zM425 44h10v10h-10zM425 56h10v10h-10zM425 68h10v10h-10zM425 80h10v10h-10zM425 92h10v10h-10z"/></g><g><path fill="#c6e48b" d="M437 20h10v10h-10zM437 32h10v10h-10zM437 44h10v10h-10zM437 56h10v10h-10z"/><path fill="#239a3b" d="M437 68h10v10h-10zM437 80h10v10h-10zM437 92h10v10h-10z"/></g><g><path fill="#c6e48b" d="M449 20h10v10h-10zM449 32h10v10h-10z"/><path fill="#239a3b" d="M449 44h10v10h-10zM449 56h10v10h-10zM449 68h10v10h-10z"/><path fill="#c6e48b" d="M449 80h10v10h-10zM449 92h10v10h-10z"/></g><g><path fill="#239a3b" d="M461 20h10v10h-10zM461 32h10v10h-10z"/><path fill="#c6e48b" d="M461 44h10v10h-10zM461 56h10v10h-10z"/><path fill="#239a3b" d="M461 68h10v10h-10z"/><path fill="#c6e48b" d="M461 80h10v10h-10zM461 92h10v10h-10z"/></g><g><path fill="#c6e48b" d="M473 20h10v10h-10zM473 32h10v10h-10z"/><path fill="#239a3b" d="M473 44h10v10h-10zM473 56h10v10h-10zM473 68h10v10h-10z"/><path fill="#c6e48b" d="M473 80h10v10h-10zM473 92h10v10h-10z"/></g><g><path fill="#c6e48b" d="M485 20h10v10h-10zM485 32h10v10h-10zM485 44h10v10h-10zM485 56h10v10h-10z"/><path fill="#239a3b" d="M485 68h10v10h-10zM485 80h10v10h-10zM485 92h10v10h-10z"/></g><g fill="#c6e48b"><path d="M497 20h10v10h-10zM497 32h10v10h-10zM497 44h10v10h-10zM497 56h10v10h-10zM497 68h10v10h-10zM497 80h10v10h-10zM497 92h10v10h-10z"/></g><g fill="#ebedf0"><path d="M509 20h10v10h-10zM509 32h10v10h-10zM509 44h10v10h-10zM509 56h10v10h-10zM509 68h10v10h-10zM509 80h10v10h-10zM509 92h10v10h-10z"/></g><g><path fill="#ebedf0" d="M521 20h10v10h-10z"/><path fill="#239a3b" d="M521 32h10v10h-10zM521 44h10v10h-10zM521 56h10v10h-10z"/><path fill="#ebedf0" d="M521 68h10v10h-10zM521 80h10v10h-10zM521 92h10v10h-10z"/></g><g><path fill="#239a3b" d="M533 20h10v10h-10z"/><path fill="#c6e48b" d="M533 32h10v10h-10zM533 44h10v10h-10zM533 56h10v10h-10z"/><path fill="#239a3b" d="M533 68h10v10h-10z"/><path fill="#ebedf0" d="M533 80h10v10h-10zM533 92h10v10h-10z"/></g><g><path fill="#239a3b" d="M545 20h10v10h-10z"/><path fill="#c6e48b" d="M545 32h10v10h-10zM545 44h10v10h-10zM545 56h10v10h-10zM545 68h10v10h-10z"/><path fill="#239a3b" d="M545 80h10v10h-10z"/><path fill="#ebedf0" d="M545 92h10v10h-10z"/></g><g><path fill="#ebedf0" d="M557 20h10v10h-10z"/><path fill="#239a3b" d="M557 32h10v10h-10z"/><path fill="#c6e48b" d="M557 44h10v10h-10zM557 56h10v10h-10zM557 68h10v10h-10zM557 80h10v10h-10z"/><path fill="#239a3b" d="M557 92h10v10h-10z"/></g><g><path fill="#239a3b" d="M569 20h10v10h-10z"/><path fill="#c6e48b" d="M569 32h10v10h-10zM569 44h10v10h-10zM569 56h10v10h-10zM569 68h10v10h-10z"/><path fill="#239a3b" d="M569 80h10v10h-10z"/><path fill="#ebedf0" d="M569 92h10v10h-10z"/></g><g><path fill="#239a3b" d="M581 20h10v10h-10z"/><path fill="#c6e48b" d="M581 32h10v10h-10zM581 44h10v10h-10zM581 56h10v10h-10z"/><path fill="#239a3b" d="M581 68h10v10h-10z"/><path fill="#ebedf0" d="M581 80h10v10h-10zM581 92h10v10h-10z"/></g><g><path fill="#ebedf0" d="M593 20h10v10h-10z"/><path fill="#239a3b" d="M593 32h10v10h-10zM593 44h10v10h-10zM593 56h10v10h-10z"/><path fill="#ebedf0" d="M593 68h10v10h-10zM593 80h10v10h-10zM593 92h10v10h-10z"/></g><g fill="#ebedf0"><path d="M605 20h10v10h-10zM605 32h10v10h-10zM605 44h10v10h-10zM605 56h10v10h-10zM605 68h10v10h-10zM605 80h10v10h-10zM605 92h10v10h-10z"/></g><g fill="#ebedf0"><path d="M617 20h10v10h-10zM617 32h10v10h-10zM617 44h10v10h-10zM617 56h10v10h-10zM617 68h10v10h-10zM617 80h10v10h-10zM617 92h10v10h-10z"/></g><g fill="#ebedf0"><path d="M629 20h10v10h-10zM629 32h10v10h-10zM629 44h10v10h-10zM629 56h10v10h-10zM629 68h10v10h-10zM629 80h10v10h-10zM629 92h10v10h-10z"/></g><g fill="#ebedf0"><path d="M641 20h10v10h-10zM641 32h10v10h-10zM641 44h10v10h-10zM641 56h10v10h-10zM641 68h10v10h-10zM641 80h10v10h-10zM641 92h10v10h-10z"/></g><g fill="#ebedf0"><path d="M653 20h10v10h-10zM653 32h10v10h-10zM653 44h10v10h-10zM653 56h10v10h-10zM653 68h10v10h-10zM653 80h10v10h-10zM653 92h10v10h-10z"/></g></svg>